<svg width="32" height="32" viewBox="0 0 32 32" fill="none" xmlns="http://www.w3.org/2000/svg">
<path d="M31.2074 25.0977C32.2642 25.2105 32.2642 26 31.2074 25.9248C29.7733 25.812 28.0372 25.6617 26.5275 25.6617C25.2066 25.6617 23.1685 26 21.4702 26C19.1679 26 17.5073 25.6617 15.9599 25.6617C14.4125 25.6617 13.1293 25.9248 10.7139 25.9248C8.48714 25.9248 6.78878 25.6617 5.27913 25.6617C3.76947 25.6617 2.41079 25.9248 0.863391 25.9248C-0.268849 25.9248 -0.30659 25.2105 0.863391 25.0977C2.97691 24.8722 3.80722 24.0451 3.92044 22.0526C4.03366 20.0977 4.03366 18.3684 4.03366 16.3383V16.2632C4.03366 14.2331 3.92044 11.188 3.76947 10.0602C3.65625 9.00752 2.86368 8.33083 1.61822 8.25564C0.636943 8.18045 0.599202 7.54135 1.61822 7.35339C3.35432 7.05263 4.71301 6.6391 5.46783 6.15038C5.92073 5.84962 6.41137 6.03759 6.37363 6.52632C6.29814 7.35338 6.03396 10.6241 6.03396 11.2632C6.03396 11.7143 6.67556 11.7519 6.86426 11.2632C8.41166 7.65413 10.1478 6 12.3368 6C14.9787 6 16.5638 7.50376 16.9789 10.4361L17.3941 10.5113C18.866 7.35338 20.5266 6 22.9043 6C25.9614 6 27.622 8.03007 27.622 11.8647V16.2632L27.6597 22.0902C27.6597 23.8571 28.8675 24.8722 31.2074 25.0977ZM6.37363 16.2632L6.41137 22.0902C6.41137 24.1579 7.92102 25.1729 10.6384 25.1729C13.3558 25.1729 14.4503 24.4211 14.6012 22.0526C14.7145 20.0977 14.7145 18.3684 14.7145 16.3383C14.7145 15.1729 14.6767 13.0677 14.639 12.0902C14.5258 9.45865 13.469 8.18045 11.431 8.25564C8.52488 8.36842 6.37363 11.7895 6.37363 16.1504V16.2632ZM17.0544 15.4361L17.0922 22.0902C17.0922 24.1955 18.6396 25.3233 21.2437 25.3233C23.9611 25.3233 25.0178 24.4962 25.1688 22.0526C25.282 20.0977 25.282 18.3684 25.282 16.3383C25.282 15.1729 25.2443 13.0677 25.2066 12.0902C25.0933 9.45865 24.0743 8.21805 21.9985 8.25564C19.1302 8.29323 17.2431 11.0752 17.0544 15.4361Z" fill="black"/>
</svg>
